HIERARCHY
ROOT Hips
{
	OFFSET 0.00000 0.00000 0.00000
	CHANNELS 6 Xposition Yposition Zposition Zrotation Yrotation Xrotation 
	JOINT LHipJoint
	{
		OFFSET 0 0 0
		CHANNELS 3 Zrotation Yrotation Xrotation
		JOINT LeftUpLeg
		{
			OFFSET 1.82298 -1.58346 0.87084
			CHANNELS 3 Zrotation Yrotation Xrotation
			JOINT LeftLeg
			{
				OFFSET 2.43790 -6.69809 0.00000
				CHANNELS 3 Zrotation Yrotation Xrotation
				JOINT LeftFoot
				{
					OFFSET 2.59288 -7.12389 0.00000
					CHANNELS 3 Zrotation Yrotation Xrotation
					JOINT LeftToeBase
					{
						OFFSET 0.14552 -0.39981 2.13160
						CHANNELS 3 Zrotation Yrotation Xrotation
						End Site
						{
							OFFSET 0.00000 -0.00000 1.09427
						}
					}
				}
			}
		}
	}
	JOINT RHipJoint
	{
		OFFSET 0 0 0
		CHANNELS 3 Zrotation Yrotation Xrotation
		JOINT RightUpLeg
		{
			OFFSET -1.77229 -1.58346 0.87084
			CHANNELS 3 Zrotation Yrotation Xrotation
			JOINT RightLeg
			{
				OFFSET -2.50703 -6.88801 0.00000
				CHANNELS 3 Zrotation Yrotation Xrotation
				JOINT RightFoot
				{
					OFFSET -2.61620 -7.18796 0.00000
					CHANNELS 3 Zrotation Yrotation Xrotation
					JOINT RightToeBase
					{
						OFFSET -0.15190 -0.41735 2.15974
						CHANNELS 3 Zrotation Yrotation Xrotation
						End Site
						{
							OFFSET -0.00000 -0.00000 1.10919
						}
					}
				}
			}
		}
	}
	JOINT LowerBack
	{
		OFFSET 0 0 0
		CHANNELS 3 Zrotation Yrotation Xrotation
		JOINT Spine
		{
			OFFSET -0.03602 2.12423 -0.30249
			CHANNELS 3 Zrotation Yrotation Xrotation
			JOINT Spine1
			{
				OFFSET 0.02717 2.10043 0.12912
				CHANNELS 3 Zrotation Yrotation Xrotation
				JOINT Neck
				{
					OFFSET 0 0 0
					CHANNELS 3 Zrotation Yrotation Xrotation
					JOINT Neck1
					{
						OFFSET -0.06371 1.88656 0.11602
						CHANNELS 3 Zrotation Yrotation Xrotation
						JOINT Head
						{
							OFFSET 0.08208 1.87759 -0.11505
							CHANNELS 3 Zrotation Yrotation Xrotation
							End Site
							{
								OFFSET 0.03382 1.93090 -0.05483
							}
						}
					}
				}
				JOINT LeftShoulder
				{
					OFFSET 0 0 0
					CHANNELS 3 Zrotation Yrotation Xrotation
					JOINT LeftArm
					{
						OFFSET 3.30903 1.40357 0.20156
						CHANNELS 3 Zrotation Yrotation Xrotation
						JOINT LeftForeArm
						{
							OFFSET 5.43301 -0.00000 0.00000
							CHANNELS 3 Zrotation Yrotation Xrotation
							JOINT LeftHand
							{
								OFFSET 3.15936 -0.00000 0.00000
								CHANNELS 3 Zrotation Yrotation Xrotation
								JOINT LeftFingerBase
								{
									OFFSET 0 0 0
									CHANNELS 3 Zrotation Yrotation Xrotation
									JOINT LeftHandIndex1
									{
										OFFSET 0.71283 -0.00000 0.00000
										CHANNELS 3 Zrotation Yrotation Xrotation
										End Site
										{
											OFFSET 0.57470 -0.00000 0.00000
										}
									}
								}
								JOINT LThumb
								{
									OFFSET 0 0 0
									CHANNELS 3 Zrotation Yrotation Xrotation
									End Site
									{
										OFFSET 0.58347 -0.00000 0.58347
									}
								}
							}
						}
					}
				}
				JOINT RightShoulder
				{
					OFFSET 0 0 0
					CHANNELS 3 Zrotation Yrotation Xrotation
					JOINT RightArm
					{
						OFFSET -3.12947 1.60037 -0.00464
						CHANNELS 3 Zrotation Yrotation Xrotation
						JOINT RightForeArm
						{
							OFFSET -5.34194 -0.00000 0.00000
							CHANNELS 3 Zrotation Yrotation Xrotation
							JOINT RightHand
							{
								OFFSET -3.19351 -0.00000 0.00000
								CHANNELS 3 Zrotation Yrotation Xrotation
								JOINT RightFingerBase
								{
									OFFSET 0 0 0
									CHANNELS 3 Zrotation Yrotation Xrotation
									JOINT RightHandIndex1
									{
										OFFSET -0.74386 -0.00000 0.00000
										CHANNELS 3 Zrotation Yrotation Xrotation
										End Site
										{
											OFFSET -0.59972 -0.00000 0.00000
										}
									}
								}
								JOINT RThumb
								{
									OFFSET 0 0 0
									CHANNELS 3 Zrotation Yrotation Xrotation
									End Site
									{
										OFFSET -0.60888 -0.00000 0.60888
									}
								}
							}
						}
					}
				}
			}
		}
	}
}
MOTION
Frames: 6
Frame Time: 0.0238095
0.00 0.00 0.00 0 0 0 0 0 0 -21 0 0 0 0 0 0 0 0 0 0 0 0 0 0 21 0 0 0 0 0 0 0 0 0 0 0 0 0 0 0 0 0 0 0 0 0 0 -16 0 0 21 0 0 11 0 0 0 -8 0 0 0 0 0 0 0 0 0 0 0 0 0 0 0 0 0 0 0 0 8 0 0 0 0 0 0 0 0 0 0 0 0 0 0 0 0 0
0.00 0.00 0.00 -11.5114 -16.4341 12.4805 0.0000 0.0000 0.0000 -6.4619 5.5891 -72.4768 16.4452 19.6943 79.5554 0.5254 12.5182 -23.3525 0.4374 4.2440 11.7640 0.0000 0.0000 0.0000 16.0132 -5.4440 6.9293 -5.1839 -13.5880 41.6113 -0.0459 -17.7040 -25.4745 -3.5656 11.5588 -34.1885 0.8319 5.9404 9.6474 0.8001 8.1498 -3.4728 -1.0226 3.9296 -9.0940 -5.3541 -2.6912 -6.0443 6.8177 -3.6602 6.7510 3.0742 -1.6938 3.5740 -0.0000 0.0000 0.0000 -71.7564 1.3473 27.5560 106.2061 -58.9840 -73.9870 -0.0000 0.0000 -1.8564 34.2951 10.7655 7.2601 -7.1250 0.0000 -0.0000 6.5601 42.8462 -0.3503 -0.0000 0.0000 0.0000 68.1946 19.4193 45.8099 -125.1815 54.7632 -89.9323 0.0000 0.0000 18.2586 -32.0112 -27.5339 16.1185 7.1250 -0.0000 -0.0000 -2.1108 -61.5508 0.8506
0.00 0.00 0.00 -10.6275 -11.0613 10.6634 0.0000 0.0000 0.0000 -7.0475 0.1798 -67.2355 15.5921 19.5276 77.0139 0.5282 12.6272 -23.4935 0.4002 4.0615 11.2498 0.0000 0.0000 0.0000 15.3087 -6.3673 1.6827 -8.7738 -16.6599 55.3045 0.3067 -11.1101 -9.7494 -1.4261 7.5515 -21.3600 -0.5823 6.5868 10.0275 0.6311 8.8161 -3.5156 -0.6106 4.3167 -9.5488 -6.3434 -4.4780 -5.3289 8.3664 -6.1405 6.8126 3.2788 -2.8811 3.3516 0.0000 0.0000 0.0000 -73.2103 4.1758 27.3135 103.9033 -59.2569 -72.0106 -0.0000 0.0000 -4.4060 32.6636 9.1359 5.8122 -7.1250 0.0000 -0.0000 5.0768 40.7429 -0.5345 0.0000 0.0000 0.0000 64.3003 19.3014 42.1460 -128.0948 53.7356 -92.2969 0.0000 0.0000 21.7453 -31.6861 -28.0807 16.2018 7.1250 -0.0000 -0.0000 -1.5216 -62.0602 0.6314
0.00 0.00 0.00 -9.4389 -5.6561 8.9140 0.0000 0.0000 0.0000 -8.6768 -3.8083 -61.8831 14.6039 19.2871 74.0406 0.6461 11.6164 -23.4952 0.4714 4.4037 12.2152 0.0000 0.0000 0.0000 13.8650 -5.9889 -7.3464 -14.3299 -19.2111 73.2096 0.2244 12.0142 -4.8154 -1.8543 8.5557 -24.4152 -3.3181 6.9881 9.4057 0.4806 8.9827 -3.2454 0.7552 4.5541 -9.3115 -7.2799 -6.0272 -4.4581 9.9508 -8.2850 6.0774 3.8144 -3.9376 3.2557 0.0000 0.0000 0.0000 -72.4997 5.9875 26.4286 100.9256 -59.5441 -69.4473 -0.0000 0.0000 -5.9996 30.8954 4.7144 2.8156 -7.1250 0.0000 -0.0000 3.5323 35.4514 -0.8300 0.0000 0.0000 0.0000 60.0397 17.3345 37.6165 -129.3816 53.2419 -93.3312 0.0000 0.0000 22.8587 -33.5751 -30.2670 18.4982 7.1250 -0.0000 -0.0000 -3.1744 -64.9623 1.5334
0.00 0.00 0.00 -8.6482 -0.2098 6.7266 0.0000 0.0000 0.0000 -10.5208 -6.2133 -55.6273 13.2780 18.8802 69.9867 0.6173 11.1638 -22.7900 0.3342 3.7151 10.2764 0.0000 0.0000 0.0000 11.5376 -7.7557 -19.2347 -20.3948 -19.9963 91.1543 -0.1414 10.2417 -9.2906 -2.1180 9.1076 -26.1325 -5.7933 6.7998 9.7612 0.0586 8.3469 -2.8446 1.7458 4.3578 -9.3589 -7.5896 -7.0181 -3.2322 11.6273 -9.7318 5.2056 4.3349 -4.6588 3.0209 -0.0000 0.0000 0.0000 -68.6034 6.4180 25.1732 98.1476 -59.7477 -67.0500 -0.0000 0.0000 -4.2325 29.9655 1.7367 1.0010 -7.1250 0.0000 -0.0000 2.7250 31.9766 -0.8693 -0.0000 0.0000 0.0000 58.3111 13.1944 33.6292 -129.3565 53.2518 -93.3111 0.0000 0.0000 19.3802 -35.8209 -31.7670 20.8063 7.1250 -0.0000 -0.0000 -5.7936 -67.2637 3.1085
0.00 0.00 0.00 -10.1202 5.7400 2.7928 0.0000 0.0000 0.0000 -10.4619 -7.3471 -45.9087 11.3665 18.1098 63.9662 0.7330 9.5932 -22.3645 0.2496 3.2149 8.8778 0.0000 0.0000 0.0000 8.1254 -8.4183 -36.1400 -26.0391 -19.1021 107.9151 -0.5816 0.1216 -14.3699 -1.3764 7.4242 -20.9782 -6.3883 6.3281 11.4202 0.4170 7.5562 -1.9448 2.4961 3.9902 -9.3937 -7.9631 -7.7785 -1.9884 13.1458 -10.9067 5.0373 4.8321 -5.2526 2.9869 -0.0000 -0.0000 0.0000 -63.5627 2.1994 23.4868 92.7001 -59.9724 -62.3381 -0.0000 0.0000 -0.8211 26.1976 0.3583 0.1763 -7.1250 0.0000 -0.0000 -0.2914 30.3789 0.1040 -0.0000 -0.0000 0.0000 58.1631 5.1649 28.0736 -127.4017 53.9911 -91.7372 0.0000 0.0000 16.2830 -36.8103 -32.5090 21.9101 7.1250 -0.0000 -0.0000 -7.0280 -68.3787 3.9513
